# xmcd
#
# Track frame offsets:
#	150
#	20134
#	38496
#	53921
#	68679
#	86030
#	103958
#	120193
#	136906
#	158646
#	175122
#	193830
#	212840
#	228143
#	245391
#
# Disc length: 3552 seconds
#
# Revision: 1
# Processed by: cddbd v1.5.2PL0 Copyright (c) Steve Scherf et al.
# Submitted via: audiograbber 1.83.01
#
DISCID=c30dde0f
DTITLE=Compilation - SBI602
DYEAR=2012
DGENRE=COUNTRY
TTITLE0=Kenny chesney - Come Over
TTITLE1=Gloriana - Kiss You Good Night
TTITLE2=Love and Theft - Angel Eyes
TTITLE3=Dierks Bently - 5-1-5-0
TTITLE4=Eli Young Band - Even If It Breaks Your Heart
TTITLE5=The Band Perry - Postcard From Paris
TTITLE6=Josh Turner - Time Is Love
TTITLE7=Little Big Town - Pontoon
TTITLE8=Keith Urban - For You
TTITLE9=Thomas Rhett - Something To Do With My hands
TTITLE10=Thomson Square - Glass
TTITLE11=Hunter Hayes - Wanted
TTITLE12=Jason Aldean - Take A Little Ride
TTITLE13=Lee Brice - Hard To Love
TTITLE14=Johnny Reid - Dance With Me
EXTD=
EXTT0=
EXTT1=
EXTT2=
EXTT3=
EXTT4=
EXTT5=
EXTT6=
EXTT7=
EXTT8=
EXTT9=
EXTT10=
EXTT11=
EXTT12=
EXTT13=
EXTT14=
PLAYORDER=
